####
#
#	OBJ File Generated by LightWave3D
#	LightWave3D OBJ Export v2.3
#
####
o WallCurve.obj
mtllib WallCurve.mtl
g default
v -79.9998 80 -1.9072e-05
v 0.000228328 80 -2.67014e-05
v 0.000228328 80 12
v -79.9998 80 12
v -69.9998 80 12
v -69.9998 70 12
v -69.9998 80 -1.9072e-05
v -69.9998 70 -1.9072e-05
v -59.9998 70 12
v -59.9998 80 12
v -59.9998 80 -1.9072e-05
v -59.9998 70 -1.9072e-05
v -49.9998 70 12
v -49.9998 80 12
v -49.9998 80 -2.67014e-05
v -49.9998 70 -2.67014e-05
v -39.9998 70 12
v -39.9998 80 12
v -39.9998 80 -1.9072e-05
v -39.9998 70 -1.9072e-05
v -29.9998 70 12
v -29.9998 80 12
v -29.9998 80 -1.9072e-05
v -29.9998 70 -1.9072e-05
v -19.9998 70 12
v -19.9998 80 12
v -19.9998 80 -3.43308e-05
v -19.9998 70 -3.43308e-05
v -9.99977 80 12
v -9.99977 80 -2.67014e-05
v -79.9998 75 12
v -69.9998 75 12
v -69.9998 75 -1.9072e-05
v -79.9998 75 -1.9072e-05
v -59.9998 75 12
v -49.9998 75 12
v -49.9998 75 -2.67014e-05
v -59.9998 75 -1.9072e-05
v -39.9998 75 12
v -29.9998 75 12
v -29.9998 75 -1.9072e-05
v -39.9998 75 -1.9072e-05
v -19.9998 75 12
v -9.99977 75 12
v -9.99977 75 -2.67014e-05
v -19.9998 75 -3.43308e-05
v -79.9998 0 0.000156404
v 0.000190181 0 0.000148775
v -79.9998 1 0.000156404
v 0.000190181 1 0.000148775
v -79.9998 0 0.400158
v -79.9998 1 0.400158
v 0.000174922 1 0.400158
v 0.000174922 0 0.400158
v 0.000190181 75 0.000148775
v -79.9998 75 0.000156404
v -79.9998 70 -1.9072e-05
v -79.9998 70 12
v -79.9998 75 12
v -79.9998 75 -1.9072e-05
v -79.9998 0 0.000156404
v -79.9998 1 0.000156404
v -79.9998 0 0.400158
v -79.9998 1 0.400158
v 8.48516 75 3.51473
v 8.48501 1 3.51482
v 8.20217 0 3.79767
v 8.20217 1 3.79767
v 0 80 12
v 8.485 80 3.515
v 0 80 -0
v -9.99977 70 12
v -9.99977 70 -2.67014e-05
v 0 70 12
v 8.485 70 3.515
v 0 70 -0
v 0.000228328 70 -2.67014e-05
v 0.000228328 70 12
vn -0 1 -0
vn -0 1 -0
vn -0 1 -0
vn -0 1 -0
vn 0 -1 -0
vn 0 -1 -0
vn 0 -1 -0
vn 0 -1 -0
vn -0 1 -0
vn -0 1 -0
vn -0 1 -0
vn -0 1 -0
vn 1 0 6.35782e-07
vn 1 0 6.35782e-07
vn 1 0 6.35782e-07
vn 1 0 6.35782e-07
vn -0 -1 0
vn -0 -1 0
vn -0 -1 0
vn -0 -1 0
vn 0 1 0
vn 0 1 0
vn 0 1 0
vn 0 1 0
vn -1 -0 1.27157e-06
vn -1 -0 1.27157e-06
vn -1 -0 1.27157e-06
vn -1 0 1.27157e-06
vn -1 0 1.27157e-06
vn -1 0 1.27157e-06
vn 0 -1 -0
vn 0 -1 -0
vn 0 -1 -0
vn 0 -1 -0
vn -7.62939e-07 0 1
vn -7.62939e-07 0 1
vn -7.62939e-07 0 1
vn -7.62939e-07 0 1
vn 0 1 0
vn 0 1 0
vn 0 1 0
vn 0 1 0
vn 1 0 3.17891e-07
vn 1 0 3.17891e-07
vn 1 0 3.17891e-07
vn 1 0 3.17891e-07
vn -0 -1 0
vn -0 -1 0
vn -0 -1 0
vn -0 -1 0
vn 0 1 -0
vn 0 1 -0
vn 0 1 -0
vn 0 1 -0
vn -1 -0 0
vn -1 -0 0
vn -1 -0 0
vn -1 0 -0
vn -1 0 -0
vn -1 0 -0
vn -7.6294e-07 0 1
vn -7.6294e-07 0 1
vn -7.6294e-07 0 1
vn -7.6294e-07 0 1
vn 0 1 0
vn 0 1 0
vn 0 1 0
vn 0 1 0
vn -0 -1 -0
vn -0 -1 -0
vn -0 -1 -0
vn -0 -1 -0
vn 1 0 -0
vn 1 0 -0
vn 1 0 -0
vn 1 0 -0
vn 0 -1 0
vn 0 -1 0
vn 0 -1 0
vn 0 -1 0
vn 0 1 0
vn 0 1 0
vn 0 1 0
vn 0 1 0
vn -1 0 -6.35783e-07
vn -1 0 -6.35783e-07
vn -1 0 -6.35783e-07
vn -1 0 -6.35783e-07
vn -1 0 -6.35783e-07
vn -1 0 -6.35783e-07
vn -0 -1 0
vn -0 -1 0
vn -0 -1 0
vn -0 -1 0
vn -7.62939e-07 0 1
vn -7.62939e-07 0 1
vn -7.62939e-07 0 1
vn -7.62939e-07 0 1
vn 0 1 0
vn 0 1 0
vn 0 1 0
vn 0 1 0
vn 7.62939e-07 0 1
vn 7.62939e-07 0 1
vn 7.62939e-07 0 1
vn 7.62939e-07 0 1
vn 7.62939e-07 0 1
vn 7.62939e-07 0 1
vn 7.62939e-07 0 1
vn 7.62939e-07 0 1
vn 7.62939e-07 0 1
vn 7.62939e-07 0 1
vn 7.62939e-07 0 1
vn 7.62939e-07 0 1
vn 7.62939e-07 0 1
vn 7.62939e-07 0 1
vn 7.62939e-07 0 1
vn 7.62939e-07 0 1
vn 0 0 1
vn 0 0 1
vn 0 0 1
vn 0 0 1
vn 0 -1 -0
vn 0 -1 -0
vn 0 -1 -0
vn 0 -1 -0
vn 0 1 0
vn 0 1 0
vn 0 1 0
vn 0 1 0
vn 9.53674e-08 0 1
vn 9.53674e-08 0 1
vn 9.53674e-08 0 1
vn 9.53674e-08 0 1
vn 1 0 -0
vn 1 0 -0
vn 1 0 -0
vn 1 0 -0
vn -1 0 1.90734e-05
vn -1 0 1.90734e-05
vn -1 0 1.90734e-05
vn -1 0 1.90734e-05
vn 0 1 -0
vn 0 1 -0
vn 0 1 -0
vn -0.382683 -0 0.92388
vn -0.382683 -0 0.92388
vn -0.382683 -0 0.92388
vn -0.382683 -0 0.92388
vn 0 1 -0
vn 0 1 -0
vn 0 1 -0
vn 0 1 -0
vn -0.382697 -0 0.923874
vn -0.382697 -0 0.923874
vn -0.382697 -0 0.923874
vn -0.382697 -0 0.923874
vn -1 -0 0
vn -1 -0 0
vn -1 -0 0
vn -1 0 -0
vn -1 0 -0
vn -1 0 -0
vn 0 -1 -0
vn 0 -1 -0
vn 0 -1 -0
vn 0 -1 -0
vn 0 -1 -0
vn 0 -1 -0
vn 0 -1 -0
vn 0 0 1
vn 0 0 1
vn 0 0 1
vn 0 0 1
g Default
usemtl Default
s off
f 4//1 5//2 7//3 1//4
f 34//5 33//6 32//7 31//8
f 29//9 3//10 2//11 30//12
f 43//13 25//14 28//15 46//16
f 44//17 43//18 46//19 45//20
f 30//21 27//22 26//23 29//24
f 24//25 40//26 41//27
f 40//28 24//29 21//30
f 25//31 21//32 24//33 28//34
f 26//35 22//36 21//37 25//38
f 27//39 23//40 22//41 26//42
f 39//43 17//44 20//45 42//46
f 40//47 39//48 42//49 41//50
f 23//51 19//52 18//53 22//54
f 16//55 36//56 37//57
f 36//58 16//59 13//60
f 18//61 14//62 13//63 17//64
f 19//65 15//66 14//67 18//68
f 17//69 13//70 16//71 20//72
f 35//73 9//74 12//75 38//76
f 36//77 35//78 38//79 37//80
f 15//81 11//82 10//83 14//84
f 8//85 32//86 33//87
f 32//88 8//89 6//90
f 9//91 6//92 8//93 12//94
f 10//95 5//96 6//97 9//98
f 11//99 7//100 5//101 10//102
f 43//103 44//104 29//105 26//106
f 39//107 40//108 22//109 18//110
f 35//111 36//112 14//113 10//114
f 31//115 32//116 5//117 4//118
f 54//119 53//120 52//121 51//122
f 47//123 48//124 54//125 51//126
f 50//127 49//128 52//129 53//130
f 50//131 55//132 56//133 49//134
f 57//135 60//136 59//137 58//138
f 64//139 62//140 61//141 63//142
f 70//143 71//144 69//145
f 50//146 66//147 65//148 55//149
f 53//150 68//151 66//152 50//153
f 54//154 67//155 68//156 53//157
f 73//158 44//159 45//160
f 44//161 73//162 72//163
f 76//164 75//165 74//166
f 73//167 77//168 78//169 72//170
f 72//171 78//172 3//173 29//174
