####
#
#	OBJ File Generated by LightWave3D
#	LightWave3D OBJ Export v2.3
#
####
o Floor.obj
mtllib Floor.mtl
g default
v -40 -1 40
v 40 -1 40
v 40 -1 -40
v -40 -1 -40
v -40 0 40
v 40 0 40
v 40 0 -40
v -40 0 -40
vt 0 0
vt 0 1
vt 1 0
vt 1 1
vn 0 -1 -0
vn 0 -1 -0
vn 0 -1 -0
vn 0 -1 -0
vn 1 0 -0
vn 1 0 -0
vn 1 0 -0
vn 1 0 -0
vn 0 0 -1
vn 0 0 -1
vn 0 0 -1
vn 0 0 -1
vn 0 1 -0
vn 0 1 -0
vn 0 1 -0
vn 0 1 -0
vn -1 0 -0
vn -1 0 -0
vn -1 0 -0
vn -1 0 -0
vn 0 0 1
vn 0 0 1
vn 0 0 1
vn 0 0 1
g Floor
usemtl Floor
s off
f 4/2/1 3/4/2 2/3/3 1/1/4
f 3/4/5 7/4/6 6/3/7 2/3/8
f 8/2/9 7/4/10 3/4/11 4/2/12
f 6/3/13 7/4/14 8/2/15 5/1/16
f 5/1/17 8/2/18 4/2/19 1/1/20
f 2/3/21 6/3/22 5/1/23 1/1/24
