####
#
#	OBJ File Generated by LightWave3D
#	LightWave3D OBJ Export v2.3
#
####
o WallCurveTEXTtest.obj
mtllib WallCurveTEXTtest.mtl
g default
v -79.9998 1 0.000156404
v 0.000190181 1 0.000148775
v 0.000190181 75 0.000148775
v -79.9998 75 0.000156404
v 8.48516 75 3.51473
v 8.48501 1 3.51482
vt 0 0
vt 0 1
vt 0.897068 0
vt 0.897068 1
vt 0.999999 0
vt 1 1
vn -0.19509 0 0.980785
vn -0.19509 0 0.980785
vn 9.53625e-08 0 1
vn 9.53625e-08 0 1
vn -0.19509 0 0.980785
vn -0.382683 0 0.92388
vn -0.382683 0 0.92388
vn -0.19509 0 0.980785
g Wall
usemtl Wall
s off
f 2/3/1 3/4/2 4/2/3 1/1/4
f 2/3/5 6/5/6 5/6/7 3/4/8
